#!OML:ASF C:\Vicon Data\Big\jianyuan-13\jianyuan\Session 1\Capture.male.ASF
:FULLY-SPECIFIED
:DEGREES
14
root -7.843061 17.296465 -23.142405 10.574830 5.450236 1.381620
lowerback -8.478322 -1.276098 -1.823831 
upperback -0.288342 -1.578934 0.340114 
thorax 4.515016 -0.840828 1.183533 
lowerneck -5.844549 -2.127726 2.961757 
upperneck 2.131959 -2.968527 -2.937889 
head 1.575591 -1.527442 -1.523936 
rclavicle 0.000000 0.000000 
rhumerus -43.479283 -24.972512 -74.198966 
rradius 25.758319 
rwrist 34.590208 
rhand -18.710676 -15.219057 
rfingers 0.000000 
rthumb 7.584441 -45.063148 
lclavicle 0.000000 0.000000 
lhumerus -18.533731 17.878841 89.266375 
lradius 32.225056 
lwrist -44.690504 
lhand -28.878040 -0.649309 
lfingers 0.000000 
lthumb -2.233887 29.318771 
rfemur -29.627139 7.019277 18.182359 
rtibia 24.973155 
rfoot -8.802830 -2.472509 
rtoes -19.403816 
lfemur -10.295237 -7.825959 -20.494904 
ltibia 23.035131 
lfoot -15.304148 3.186783 
ltoes -30.200743 
15
root -7.851115 17.300152 -23.085059 10.585882 5.554555 1.349494
lowerback -8.581001 -1.267096 -1.729168 
upperback -0.277286 -1.573628 0.320061 
thorax 4.580807 -0.836622 1.107840 
lowerneck -5.922929 -2.144182 3.185659 
upperneck 2.178020 -3.001488 -3.167386 
head 1.598750 -1.547845 -1.640635 
rclavicle 0.000000 0.000000 
rhumerus -43.411910 -25.128736 -74.215956 
rradius 25.692096 
rwrist 34.588124 
rhand -18.780833 -15.284277 
rfingers 0.000000 
rthumb 7.516688 -45.130760 
lclavicle 0.000000 0.000000 
lhumerus -18.653320 18.041971 89.163344 
lradius 32.200072 
lwrist -44.499935 
lhand -28.907421 -0.728354 
lfingers 0.000000 
lthumb -2.262304 29.239442 
rfemur -29.483444 7.044282 18.283625 
rtibia 25.106722 
rfoot -8.967020 -2.396895 
rtoes -18.487340 
lfemur -10.798615 -7.695539 -20.442270 
ltibia 24.270612 
lfoot -15.080685 3.149875 
ltoes -31.147275 
16
root -7.857112 17.301727 -23.030053 10.594085 5.671142 1.351243
lowerback -8.644726 -1.265346 -1.713985 
upperback -0.279079 -1.573196 0.343991 
thorax 4.614957 -0.836730 1.122879 
lowerneck -5.989349 -2.146358 3.214182 
upperneck 2.227348 -3.005966 -3.214591 
head 1.625635 -1.551309 -1.663237 
rclavicle 0.000000 0.000000 
rhumerus -43.362348 -25.247598 -74.139067 
rradius 25.631777 
rwrist 34.706008 
rhand -18.680551 -15.307932 
rfingers 0.000000 
rthumb 7.613497 -45.150919 
lclavicle 0.000000 0.000000 
lhumerus -18.815514 18.217580 89.134020 
lradius 32.191179 
lwrist -44.338599 
lhand -28.855110 -0.821654 
lfingers 0.000000 
lthumb -2.211778 29.146651 
rfemur -29.346885 7.017407 18.352856 
rtibia 25.238904 
rfoot -9.104694 -2.363584 
rtoes -17.948084 
lfemur -11.306084 -7.607738 -20.426823 
ltibia 25.504404 
lfoot -14.817825 3.064179 
ltoes -31.583961 
17
root -7.865057 17.304148 -22.973151 10.501876 5.748192 1.360668
lowerback -8.616438 -1.254270 -1.735836 
upperback -0.257369 -1.556393 0.362206 
thorax 4.622283 -0.828820 1.156549 
lowerneck -5.936314 -2.143407 3.120546 
upperneck 2.163409 -2.996397 -3.183552 
head 1.597139 -1.546727 -1.634223 
rclavicle 0.000000 0.000000 
rhumerus -43.294072 -25.267390 -74.144479 
rradius 25.637648 
rwrist 34.531616 
rhand -18.590673 -15.393770 
rfingers 0.000000 
rthumb 7.700253 -45.233558 
lclavicle 0.000000 0.000000 
lhumerus -19.025706 18.347554 89.095332 
lradius 32.235988 
lwrist -44.060177 
lhand -28.783484 -0.817590 
lfingers 0.000000 
lthumb -2.142595 29.151418 
rfemur -29.073520 7.034375 18.428601 
rtibia 25.342273 
rfoot -9.255802 -2.362969 
rtoes -17.892765 
lfemur -11.700674 -7.543186 -20.420121 
ltibia 26.757389 
lfoot -14.584296 2.989629 
ltoes -31.727345 
18
root -7.876040 17.307199 -22.915965 10.370591 5.796958 1.337081
lowerback -8.543265 -1.234532 -1.733909 
upperback -0.232810 -1.530164 0.366897 
thorax 4.606015 -0.815286 1.164895 
lowerneck -5.832803 -2.174453 3.082290 
upperneck 2.061453 -3.034272 -3.205138 
head 1.544670 -1.566331 -1.631474 
rclavicle 0.000000 0.000000 
rhumerus -43.243886 -25.300945 -74.179802 
rradius 25.613077 
rwrist 34.497219 
rhand -18.507454 -15.409952 
rfingers 0.000000 
rthumb 7.780550 -45.246781 
lclavicle 0.000000 0.000000 
lhumerus -19.251240 18.424708 89.010424 
lradius 32.256188 
lwrist -43.671884 
lhand -28.798035 -0.721717 
lfingers 0.000000 
lthumb -2.156654 29.247135 
rfemur -28.739750 7.166153 18.532972 
rtibia 25.419984 
rfoot -9.430674 -2.438763 
rtoes -18.043684 
lfemur -12.053208 -7.537337 -20.356957 
ltibia 28.021152 
lfoot -14.380055 2.901125 
ltoes -31.451907 
19
root -7.885201 17.310361 -22.860073 10.276203 5.850170 1.305110
lowerback -8.500196 -1.217987 -1.709153 
upperback -0.223266 -1.511135 0.379495 
thorax 4.590825 -0.805131 1.167241 
lowerneck -5.793228 -2.217048 3.112487 
upperneck 2.052077 -3.090229 -3.288587 
head 1.531484 -1.595818 -1.664231 
rclavicle 0.000000 0.000000 
rhumerus -43.230287 -25.371376 -74.157641 
rradius 25.557728 
rwrist 34.788988 
rhand -18.520518 -15.466175 
rfingers 0.000000 
rthumb 7.767928 -45.303509 
lclavicle 0.000000 0.000000 
lhumerus -19.490342 18.518612 88.920123 
lradius 32.230303 
lwrist -43.347756 
lhand -28.892192 -0.612651 
lfingers 0.000000 
lthumb -2.247608 29.355243 
rfemur -28.438275 7.280890 18.636657 
rtibia 25.478999 
rfoot -9.594254 -2.503366 
rtoes -18.145324 
lfemur -12.459830 -7.591814 -20.272681 
ltibia 29.284120 
lfoot -14.153078 2.813993 
ltoes -30.897783 
20
root -7.890665 17.313760 -22.804821 10.226647 5.940781 1.286738
lowerback -8.509634 -1.212467 -1.675536 
upperback -0.217453 -1.507563 0.398905 
thorax 4.601720 -0.802859 1.168696 
lowerneck -5.785870 -2.242923 3.181794 
upperneck 2.050291 -3.126587 -3.410101 
head 1.526301 -1.616332 -1.716481 
rclavicle 0.000000 0.000000 
rhumerus -43.196556 -25.414991 -74.138113 
rradius 25.557765 
rwrist 34.950564 
rhand -18.564811 -15.605176 
rfingers 0.000000 
rthumb 7.725195 -45.444090 
lclavicle 0.000000 0.000000 
lhumerus -19.716610 18.610747 88.858540 
lradius 32.214302 
lwrist -42.983420 
lhand -28.908339 -0.515101 
lfingers 0.000000 
lthumb -2.263222 29.452614 
rfemur -28.173187 7.250720 18.733202 
rtibia 25.515522 
rfoot -9.739232 -2.462149 
rtoes -18.086238 
lfemur -12.945620 -7.650793 -20.211980 
ltibia 30.545720 
lfoot -13.827526 2.803193 
ltoes -30.647251 
21
root -7.896485 17.316560 -22.749852 10.190978 6.062546 1.287678
lowerback -8.530634 -1.210973 -1.649165 
upperback -0.205436 -1.507417 0.399725 
thorax 4.625375 -0.802310 1.154189 
lowerneck -5.746358 -2.252365 3.266854 
upperneck 1.972326 -3.143502 -3.525047 
head 1.491425 -1.626942 -1.766871 
rclavicle 0.000000 0.000000 
rhumerus -43.115037 -25.393771 -74.210932 
rradius 25.618836 
rwrist 34.759906 
rhand -18.481233 -15.698955 
rfingers 0.000000 
rthumb 7.805891 -45.534879 
lclavicle 0.000000 0.000000 
lhumerus -19.903191 18.627452 88.807838 
lradius 32.202548 
lwrist -42.475259 
lhand -28.803277 -0.359254 
lfingers 0.000000 
lthumb -2.161736 29.609517 
rfemur -27.915627 7.161853 18.816107 
rtibia 25.536293 
rfoot -9.895764 -2.383422 
rtoes -17.917616 
lfemur -13.468463 -7.708285 -20.183101 
ltibia 31.803759 
lfoot -13.402535 2.894921 
ltoes -30.763715 
22
root -7.904931 17.318559 -22.694625 10.122943 6.165625 1.303272
lowerback -8.506824 -1.198906 -1.655323 
upperback -0.195389 -1.490348 0.396182 
thorax 4.621968 -0.793771 1.156480 
lowerneck -5.736149 -2.249297 3.297561 
upperneck 1.991722 -3.139183 -3.585458 
head 1.495054 -1.625808 -1.791905 
rclavicle 0.000000 0.000000 
rhumerus -43.060215 -25.309609 -74.308287 
rradius 25.682022 
rwrist 34.596727 
rhand -18.410444 -15.792708 
rfingers 0.000000 
rthumb 7.874222 -45.626100 
lclavicle 0.000000 0.000000 
lhumerus -20.120148 18.605380 88.754583 
lradius 32.140292 
lwrist -42.117703 
lhand -28.748331 -0.102280 
lfingers 0.000000 
lthumb -2.108632 29.867045 
rfemur -27.621376 7.168080 18.876492 
rtibia 25.559220 
rfoot -10.082326 -2.380661 
rtoes -17.793586 
lfemur -13.945042 -7.747343 -20.177607 
ltibia 33.047456 
lfoot -12.922528 3.004089 
ltoes -31.002159 
23
root -7.913839 17.322078 -22.637138 9.981469 6.262079 1.212437
lowerback -8.423032 -1.183676 -1.625507 
upperback -0.185473 -1.476400 0.462604 
thorax 4.585814 -0.786348 1.212014 
lowerneck -5.708633 -2.293207 3.286408 
upperneck 2.035114 -3.193346 -3.656572 
head 1.501486 -1.654331 -1.814605 
rclavicle 0.000000 0.000000 
rhumerus -43.043298 -25.236984 -74.288826 
rradius 25.722809 
rwrist 34.620698 
rhand -18.349680 -15.768664 
rfingers 0.000000 
rthumb 7.932820 -45.599803 
lclavicle 0.000000 0.000000 
lhumerus -20.418655 18.591229 88.725897 
lradius 32.131438 
lwrist -41.795565 
lhand -28.666274 0.157886 
lfingers 0.000000 
lthumb -2.029434 30.127941 
rfemur -27.227909 7.196342 19.071034 
rtibia 25.572841 
rfoot -10.305975 -2.357170 
rtoes -17.763220 
lfemur -14.335300 -7.572572 -20.062151 
ltibia 34.264850 
lfoot -12.315343 2.960349 
ltoes -31.909877 
24
root -7.919300 17.324023 -22.581926 9.890617 6.331756 1.178945
lowerback -8.385784 -1.175173 -1.514089 
upperback -0.168469 -1.473939 0.429527 
thorax 4.578777 -0.782025 1.115895 
lowerneck -5.755017 -2.306010 3.122755 
upperneck 2.136030 -3.202586 -3.433889 
head 1.546116 -1.654733 -1.716636 
rclavicle 0.000000 0.000000 
rhumerus -42.976820 -25.166572 -74.435357 
rradius 25.751661 
rwrist 34.707917 
rhand -18.360823 -15.779039 
rfingers 0.000000 
rthumb 7.922100 -45.610607 
lclavicle 0.000000 0.000000 
lhumerus -20.680361 18.571732 88.549609 
lradius 32.127791 
lwrist -41.603039 
lhand -28.569970 0.248892 
lfingers 0.000000 
lthumb -1.936376 30.219863 
rfemur -26.895066 7.108720 19.205096 
rtibia 25.583927 
rfoot -10.491105 -2.200166 
rtoes -17.878844 
lfemur -14.763579 -7.569914 -20.000358 
ltibia 35.442698 
lfoot -11.914912 2.913824 
ltoes -31.170817 
25
root -7.924915 17.326053 -22.528742 9.787735 6.464318 1.141129
lowerback -8.322114 -1.141201 -1.381314 
upperback -0.148110 -1.438759 0.378630 
thorax 4.558418 -0.760668 0.993799 
lowerneck -5.715997 -2.347946 3.162301 
upperneck 2.135365 -3.259325 -3.459794 
head 1.536149 -1.682853 -1.732583 
rclavicle 0.000000 0.000000 
rhumerus -42.939166 -25.043921 -74.667462 
rradius 25.826968 
rwrist 34.709855 
rhand -18.438807 -15.900213 
rfingers 0.000000 
rthumb 7.846811 -45.734550 
lclavicle 0.000000 0.000000 
lhumerus -20.907575 18.506207 88.407762 
lradius 32.041778 
lwrist -41.542590 
lhand -28.518289 0.269336 
lfingers 0.000000 
lthumb -1.886448 30.240720 
rfemur -26.546125 6.945416 19.360232 
rtibia 25.567869 
rfoot -10.641443 -2.050834 
rtoes -18.044686 
lfemur -15.205731 -7.709666 -19.915453 
ltibia 36.586886 
lfoot -11.538653 2.854123 
ltoes -29.460533 
